<svg width="32" height="32" viewBox="0 0 32 32" fill="none" xmlns="http://www.w3.org/2000/svg">
<rect width="32" height="32" rx="8" fill="#3d6bff"/>
<path d="M16.9201 24V19.6C16.9201 19.6 18.2801 19.4 19.0001 18C19.8801 16.28 17.5601 15.8 16.6001 15.6C15.6401 15.4 14.6801 15 14.6801 13.8C14.6801 12.6 15.7601 12.2 16.3601 12.2C16.9601 12.2 18.0401 12.6 18.0401 12.6L18.6801 8.8C18.6801 8.8 17.5601 8 16.2401 8C14.0801 8 12.0401 9.4 12.0401 12.6C12.0401 16.2 15.8801 16.4 16.9201 17V24H16.9201Z" fill="white"/>
</svg>